<svg width="316" height="316" viewBox="0 0 316 316" fill="none" xmlns="http://www.w3.org/2000/svg">
<circle cx="158" cy="158" r="126" fill="#C3002F"/>
<circle cx="158" cy="158" r="153" stroke="#C3002F" stroke-width="10"/>
<path d="M179.289 144.285L151.164 125.535C150.458 125.064 149.637 124.794 148.789 124.752C147.941 124.711 147.098 124.901 146.35 125.302C145.602 125.703 144.976 126.299 144.54 127.027C144.104 127.756 143.874 128.589 143.875 129.438V166.938C143.874 167.786 144.104 168.619 144.54 169.348C144.976 170.076 145.602 170.672 146.35 171.073C147.098 171.474 147.941 171.664 148.789 171.623C149.637 171.581 150.458 171.311 151.164 170.84L179.289 152.09C179.932 151.662 180.459 151.082 180.824 150.401C181.189 149.72 181.38 148.96 181.38 148.188C181.38 147.415 181.189 146.655 180.824 145.974C180.459 145.293 179.932 144.713 179.289 144.285ZM153.25 158.178V138.227L168.238 148.188L153.25 158.178ZM209.5 106H106.375C103.889 106 101.504 106.988 99.7459 108.746C97.9877 110.504 97 112.889 97 115.375V181C97 183.486 97.9877 185.871 99.7459 187.629C101.504 189.387 103.889 190.375 106.375 190.375H209.5C211.986 190.375 214.371 189.387 216.129 187.629C217.887 185.871 218.875 183.486 218.875 181V115.375C218.875 112.889 217.887 110.504 216.129 108.746C214.371 106.988 211.986 106 209.5 106ZM209.5 181H106.375V115.375H209.5V181ZM218.875 204.438C218.875 205.681 218.381 206.873 217.502 207.752C216.623 208.631 215.431 209.125 214.188 209.125H101.688C100.444 209.125 99.252 208.631 98.3729 207.752C97.4939 206.873 97 205.681 97 204.438C97 203.194 97.4939 202.002 98.3729 201.123C99.252 200.244 100.444 199.75 101.688 199.75H214.188C215.431 199.75 216.623 200.244 217.502 201.123C218.381 202.002 218.875 203.194 218.875 204.438Z" fill="white"/>
</svg>
