<svg width="316" height="316" viewBox="0 0 316 316" fill="none" xmlns="http://www.w3.org/2000/svg">
<circle cx="158" cy="158" r="126" fill="#C3002F"/>
<path d="M175.74 83C185.79 83 190.815 89.84 190.815 97.6775C190.815 107.465 182.085 116.517 170.722 116.517C161.205 116.517 155.655 110.892 155.917 101.593C155.917 93.77 162.525 83 175.74 83ZM144.817 233C136.882 233 131.07 228.11 136.62 206.57L145.725 168.38C147.308 162.275 147.57 159.823 145.725 159.823C143.348 159.823 133.057 164.037 126.96 168.2L123 161.6C142.29 145.205 164.483 135.597 174.007 135.597C181.935 135.597 183.255 145.145 179.295 159.823L168.863 199.963C167.018 207.05 167.805 209.495 169.658 209.495C172.035 209.495 179.835 206.555 187.5 200.443L192 206.548C173.235 225.65 152.737 233 144.817 233Z" fill="white"/>
<circle cx="158" cy="158" r="153" stroke="#C3002F" stroke-width="10"/>
</svg>
