<svg width="316" height="316" viewBox="0 0 316 316" fill="none" xmlns="http://www.w3.org/2000/svg">
<circle cx="158" cy="158" r="126" fill="#C3002F"/>
<path d="M218.562 106H96.6875C94.0947 106 92 108.095 92 110.688V204.438C92 207.03 94.0947 209.125 96.6875 209.125H218.562C221.155 209.125 223.25 207.03 223.25 204.438V110.688C223.25 108.095 221.155 106 218.562 106ZM212.703 198.578H102.547V192.733L122.835 168.666L144.822 194.74L179.026 154.193L212.703 194.125V198.578ZM212.703 179.564L179.92 140.688C179.451 140.131 178.602 140.131 178.133 140.688L144.822 180.18L123.729 155.175C123.26 154.618 122.41 154.618 121.941 155.175L102.547 178.173V116.547H212.703V179.564ZM127.156 149.359C128.849 149.359 130.525 149.026 132.089 148.378C133.653 147.73 135.074 146.781 136.271 145.584C137.468 144.387 138.418 142.966 139.066 141.402C139.713 139.838 140.047 138.162 140.047 136.469C140.047 134.776 139.713 133.1 139.066 131.536C138.418 129.972 137.468 128.551 136.271 127.354C135.074 126.157 133.653 125.207 132.089 124.559C130.525 123.912 128.849 123.578 127.156 123.578C123.737 123.578 120.459 124.936 118.041 127.354C115.624 129.771 114.266 133.05 114.266 136.469C114.266 139.888 115.624 143.166 118.041 145.584C120.459 148.001 123.737 149.359 127.156 149.359ZM127.156 132.367C129.427 132.367 131.258 134.198 131.258 136.469C131.258 138.739 129.427 140.57 127.156 140.57C124.886 140.57 123.055 138.739 123.055 136.469C123.055 134.198 124.886 132.367 127.156 132.367Z" fill="white"/>
<circle cx="158" cy="158" r="153" stroke="#C3002F" stroke-width="10"/>
</svg>
